{"title":"Lovelace 2013 HDRip x264.flv","uid":8795530,"size":258537231,"categoryP":"video","categoryS":"movies","magnet":"?xt=urn:btih:95ee6b74f694af29418eafd0445174f2c8d784b3&amp;dn=Lovelace+2013+HDRip+x264.flv&amp;tr=udp%3A%2F%2Ftracker.openbittorrent.com%3A80&amp;tr=udp%3A%2F%2Fopen.demonii.com%3A1337&amp;tr=udp%3A%2F%2Ftracker.coppersurfer.tk%3A6969&amp;tr=udp%3A%2F%2Fexodus.desync.com%3A6969","seeders":1,"leechers":1,"uploader":"globeplus","files":-1,"time":1376069796,"description":"Lovelace 2013 HDRip x264.flv\n\nGeneralINFO :\n\nFormat                                   : Flash Video\nFile size                                : 247 MiB\nDuration                                 : 1h 32mn\nOverall bit rate                         : 372 Kbps\nTagging application                      : Yet Another Metadata Injector for FLV - Version 1.9\n\n\nVideo\n\nFormat                                   : AVC\nFormat/Info                              : Advanced Video Codec\nFormat profile                           : &lt;a class=&quot;__cf_email__&quot; href=&quot;/cdn-cgi/l/email-protection&quot; data-cfemail=&quot;b5fddcd2ddf5f9819b84&quot;&gt;[email&amp;#160;protected]&lt;/a&gt;&lt;script cf-hash='f9e31' type=&quot;text/javascript&quot;&gt;\n/* &lt;![CDATA[ */!function(){try{var t=&quot;currentScript&quot;in document?document.currentScript:function(){for(var t=document.getElementsByTagName(&quot;script&quot;),e=t.length;e--;)if(t[e].getAttribute(&quot;cf-hash&quot;))return t[e]}();if(t&amp;&amp;t.previousSibling){var e,r,n,i,c=t.previousSibling,a=c.getAttribute(&quot;data-cfemail&quot;);if(a){for(e=&quot;&quot;,r=parseInt(a.substr(0,2),16),n=2;a.length-n;n+=2)i=parseInt(a.substr(n,2),16)^r,e+=String.fromCharCode(i);e=document.createTextNode(e),c.parentNode.replaceChild(e,c)}}}catch(u){}}();/* ]]&gt; */&lt;/script&gt;\nFormat settings, CABAC                   : Yes\nFormat settings, ReFrames                : 4 frames\nCodec ID                                 : 7\nDuration                                 : 1h 32mn\nBit rate                                 : 276 Kbps\nWidth                                    : 720 pixels\nHeight                                   : 384 pixels\nDisplay aspect ratio                     : 1.85:1\nFrame rate mode                          : Constant\nFrame rate                               : 23.976 fps\nColor space                              : YUV\nChroma subsampling                       : 4:2:0\nBit depth                                : 8 bits\nScan type                                : Progressive\nBits/(Pixel*Frame)                       : 0.042\nStream size                              : 189 MiB (77%)\nWriting library                          : x264 core 132\n\n\nAudio\n\nFormat                                   : AAC\nFormat/Info                              : Advanced Audio Codec\nFormat profile                           : LC\nCodec ID                                 : 10\nDuration                                 : 1h 32mn\nBit rate                                 : 78.7 Kbps\nChannel(s)                               : 2 channels\nChannel positions                        : Front: L R\nSampling rate                            : 44.1 KHz\nCompression mode                         : Lossy\nDelay relative to video                  : 84ms\nStream size                              : 56.0 MiB (23%)\n\n\nSynopsis\n\nLinda Lovelace gets under the all-consuming influence of her abusive husband and self-declared manager, Chuck Traynor, who uses all means possible to persuade her to comply with his demands.\n\nThe fragile woman becomes an infamous porn star, seems to be happy, but eventually breaks free from her husband and discloses the truth in order to prevent other women from getting similarly exploited.\n\n\n\n* enjoy ...","torrent":{"xt":"urn:btih:95ee6b74f694af29418eafd0445174f2c8d784b3","amp;dn":"Lovelace+2013+HDRip+x264.flv","amp;tr":["udp%3A%2F%2Ftracker.openbittorrent.com%3A80","udp%3A%2F%2Fopen.demonii.com%3A1337","udp%3A%2F%2Ftracker.coppersurfer.tk%3A6969","udp%3A%2F%2Fexodus.desync.com%3A6969"],"infoHash":"95ee6b74f694af29418eafd0445174f2c8d784b3","infoHashBuffer":{"type":"Buffer","data":[149,238,107,116,246,148,175,41,65,142,175,208,68,81,116,242,200,215,132,179]},"announce":[],"urlList":[]}}